<svg width="110" height="45" viewBox="0 0 110 45" xmlns="http://www.w3.org/2000/svg"><path d="M3.064 19.321V10.38l7.367 8.941h2.514L5.173 10.05l7.468-8.51h-2.49L3.064 9.72V1.54H1.007v17.781h2.057zm14.022 0V.956h-2.007V19.32h2.007zM21.53 4.106c.788 0 1.397-.61 1.397-1.397 0-.762-.61-1.372-1.397-1.372-.762 0-1.371.61-1.371 1.372 0 .787.61 1.397 1.371 1.397zm1.016 15.215V6.112h-2.006v13.21h2.006zm5.436-13.209h-1.981v13.21h2.007V11.32c0-2.236 1.448-3.709 3.2-3.709 1.855 0 3.023 1.27 3.023 3.379v8.331h2.007v-7.925c0-2.464 1.397-3.785 3.251-3.785 1.956 0 2.972 1.27 2.972 3.76v7.95h2.007v-8.56c0-2.896-1.575-4.979-4.522-4.979-1.88 0-3.454.838-4.242 2.413-.61-1.448-2.006-2.413-3.988-2.413-1.75 0-3.103 1-3.663 2.087l-.071.148V6.112zm24.005 13.54c1.778 0 2.896-.66 3.581-1.448l.229 1.117h1.727V10.61c0-2.82-1.422-4.827-5.03-4.827-2.235 0-3.987.89-4.876 1.448l.813 1.473c.94-.558 2.26-1.143 3.886-1.143 1.956 0 3.2 1.067 3.2 2.922v1.625c-.533-.559-1.803-1.194-3.48-1.194-2.971 0-5.08 1.83-5.08 4.344 0 2.566 2.134 4.394 5.03 4.394zm.33-1.677c-2.032 0-3.328-1.22-3.328-2.743 0-1.55 1.296-2.718 3.303-2.718 1.98 0 3.302 1.067 3.302 2.718 0 1.6-1.347 2.743-3.277 2.743zm12.625 1.676c1.778 0 2.895-.66 3.581-1.447l.229 1.117h1.727V10.61c0-2.82-1.422-4.827-5.03-4.827-2.235 0-3.987.89-4.877 1.448l.813 1.473c.94-.558 2.261-1.143 3.887-1.143 1.956 0 3.2 1.067 3.2 2.922v1.625c-.533-.559-1.803-1.194-3.48-1.194-2.972 0-5.08 1.83-5.08 4.344 0 2.566 2.134 4.394 5.03 4.394zm.33-1.676c-2.032 0-3.328-1.22-3.328-2.743 0-1.55 1.296-2.718 3.302-2.718 1.982 0 3.303 1.067 3.303 2.718 0 1.6-1.347 2.743-3.277 2.743zm12.396 1.524c.686 0 1.219-.076 1.219-.076v-1.778s-.305.025-.559.025c-1.727 0-2.438-.584-2.438-3.048V7.814h2.895V6.112h-2.895V3.344h-2.007v2.768h-1.55v1.702h1.55V14.8c0 2.972 1.143 4.7 3.785 4.7zM4.919 39.643v-6.96h6.35v6.96h4.344V21.86h-4.344v6.91h-6.35v-6.91H.575v17.782h4.344zm19.914.33c3.455 0 5.284-2.16 5.665-2.947l-2.794-2.159c-.254.381-1.194 1.423-2.794 1.423-1.575 0-2.718-1.017-2.82-2.21h8.738c.026-.305.026-.585.026-.839 0-4.547-2.312-7.265-6.554-7.265-3.912 0-6.554 3.125-6.554 7.037 0 3.937 2.693 6.96 7.087 6.96zm1.702-8.586h-4.318c.102-.94.762-1.981 2.16-1.981 1.32 0 2.108.914 2.158 1.981zm10.263 8.256V21.277h-4.242v18.366h4.242zm6.68 4.75v-5.767c.28.33 1.524 1.347 3.556 1.347 3.861 0 6.3-2.87 6.3-7.011 0-4.09-2.693-6.986-6.528-6.986-1.956 0-3.226.94-3.607 1.372v-1.041h-3.963v18.086h4.242zm2.744-8.154c-1.677 0-2.87-1.194-2.87-3.302 0-1.779 1.04-3.252 2.87-3.252 1.701 0 2.87 1.27 2.87 3.252 0 1.955-1.143 3.302-2.87 3.302zm14.758 3.734c1.956 0 3.226-.94 3.607-1.372v1.042h3.963V21.277h-4.242v6.046c-.28-.33-1.525-1.347-3.557-1.347-3.86 0-6.3 2.87-6.3 7.011 0 4.09 2.693 6.986 6.529 6.986zm.584-3.709c-1.702 0-2.87-1.27-2.87-3.251 0-1.956 1.143-3.302 2.87-3.302 1.677 0 2.87 1.193 2.87 3.302 0 1.778-1.04 3.251-2.87 3.251zm15.85 3.709c3.455 0 5.284-2.16 5.665-2.947l-2.794-2.159c-.254.381-1.194 1.423-2.794 1.423-1.575 0-2.718-1.017-2.82-2.21h8.739c.025-.305.025-.585.025-.839 0-4.547-2.312-7.265-6.554-7.265-3.912 0-6.553 3.125-6.553 7.037 0 3.937 2.692 6.96 7.087 6.96zm1.703-8.586h-4.319c.102-.94.762-1.981 2.16-1.981 1.32 0 2.108.914 2.159 1.981zm10.287 8.586c3.048 0 5.436-1.677 5.436-4.395 0-4.826-6.147-3.86-6.147-5.537 0-.407.356-.66.965-.66 1.042 0 1.804.634 2.21 1.04l2.744-2.158c-.788-1.067-2.236-2.287-4.776-2.287-2.896 0-5.131 1.55-5.131 4.116 0 4.851 6.096 4.19 6.096 5.715 0 .483-.38.737-1.193.737-1.347 0-2.236-.534-2.947-1.169l-2.388 2.312c.788 1.067 2.591 2.286 5.131 2.286zm11.253-.33v-6.224l3.734 6.224h4.979l-4.649-7.24 4.293-6.096h-4.75l-3.607 5.36v-10.39h-4.242v18.366h4.242z" fill="#FFF" fill-rule="nonzero"/></svg>
