<svg width="181" height="74" viewBox="0 0 181 74" xmlns="http://www.w3.org/2000/svg" preserveAspectRatio="xMinYMin meet"><path d="M4.828 31.14V16.118L17.204 31.14h4.224L8.37 15.563 20.916 1.267h-4.182L4.828 15.01V1.267H1.37V31.14h3.457zm23.556 0V.286h-3.37V31.14h3.37zm7.468-25.562A2.314 2.314 0 0038.2 3.23c0-1.28-1.025-2.305-2.348-2.305a2.295 2.295 0 00-2.304 2.305c0 1.322 1.024 2.347 2.304 2.347zM37.56 31.14V8.949h-3.37v22.19h3.37zm9.175 0V17.697c0-3.755 2.433-6.23 5.378-6.23 3.115 0 5.078 2.133 5.078 5.675V31.14h3.371V17.825c0-4.14 2.347-6.358 5.462-6.358 3.286 0 4.993 2.133 4.993 6.316V31.14h3.372V16.758c0-4.865-2.646-8.364-7.596-8.364-3.158 0-5.804 1.408-7.127 4.054-1.024-2.432-3.371-4.054-6.7-4.054-3.073 0-5.42 1.835-6.273 3.756V8.949h-3.329v22.19h3.371zm40.285.555c2.988 0 4.865-1.11 6.018-2.433l.384 1.878h2.901V16.502c0-4.737-2.39-8.108-8.45-8.108-3.754 0-6.699 1.494-8.193 2.433l1.366 2.475c1.579-.94 3.798-1.92 6.53-1.92 3.285 0 5.376 1.792 5.376 4.907v2.731c-.896-.939-3.03-2.006-5.846-2.006-4.993 0-8.535 3.073-8.535 7.298 0 4.31 3.584 7.383 8.45 7.383zm.555-2.817c-3.414 0-5.59-2.048-5.59-4.609 0-2.603 2.176-4.566 5.547-4.566 3.33 0 5.548 1.792 5.548 4.566 0 2.689-2.262 4.609-5.505 4.609zm21.21 2.817c2.987 0 4.864-1.11 6.017-2.433l.384 1.878h2.902V16.502c0-4.737-2.39-8.108-8.45-8.108-3.755 0-6.7 1.494-8.194 2.433l1.366 2.475c1.579-.94 3.798-1.92 6.53-1.92 3.285 0 5.376 1.792 5.376 4.907v2.731c-.896-.939-3.03-2.006-5.846-2.006-4.993 0-8.535 3.073-8.535 7.298 0 4.31 3.585 7.383 8.45 7.383zm.554-2.817c-3.414 0-5.59-2.048-5.59-4.609 0-2.603 2.176-4.566 5.548-4.566 3.328 0 5.547 1.792 5.547 4.566 0 2.689-2.261 4.609-5.505 4.609zm20.826 2.56c1.152 0 2.048-.128 2.048-.128v-2.987s-.512.043-.939.043c-2.902 0-4.097-.982-4.097-5.121V11.808h4.865v-2.86h-4.865v-4.65h-3.371v4.65h-2.603v2.86h2.603v11.736c0 4.993 1.92 7.894 6.359 7.894zM6.876 65.28V52.947h12.419v12.332h6.017V35.407h-6.017v12.12H6.876v-12.12H.86V65.28h6.017zm34.14.555c5.548 0 8.535-3.328 9.389-4.907l-3.884-2.945c-.64.939-2.39 2.731-5.42 2.731-3.286 0-5.675-2.133-5.803-5.12h15.704c.043-.427.043-.854.043-1.28 0-7.298-3.926-11.907-10.84-11.907-6.358 0-10.924 5.035-10.924 11.778 0 6.7 4.566 11.65 11.735 11.65zm4.054-14.082h-9.602c.256-2.56 2.049-4.524 4.823-4.524 2.688 0 4.651 1.792 4.78 4.524zm15.15 13.527V34.426h-5.89v30.853h5.89zm10.54 7.98V62.976c.555.726 2.774 2.86 6.615 2.86 6.401 0 10.583-4.823 10.583-11.736 0-6.828-4.523-11.693-10.924-11.693-3.799 0-6.018 2.134-6.615 2.902V42.96H64.87V73.26h5.89zm5.548-12.631c-3.243 0-5.718-2.39-5.718-6.572 0-3.542 2.133-6.444 5.718-6.444 3.329 0 5.718 2.475 5.718 6.444 0 3.883-2.304 6.572-5.718 6.572zm24.751 5.206c3.798 0 6.017-2.133 6.615-2.859v2.304h5.548V34.426h-5.89v10.882c-.554-.768-2.773-2.902-6.614-2.902-6.401 0-10.583 4.822-10.583 11.735 0 6.871 4.523 11.693 10.924 11.693zm.726-5.206c-3.329 0-5.719-2.475-5.719-6.444 0-3.883 2.305-6.572 5.719-6.572 3.243 0 5.718 2.39 5.718 6.572 0 3.542-2.133 6.444-5.718 6.444zm26.586 5.206c5.548 0 8.535-3.328 9.389-4.907l-3.884-2.945c-.64.939-2.39 2.731-5.42 2.731-3.285 0-5.675-2.133-5.803-5.12h15.704c.043-.427.043-.854.043-1.28 0-7.298-3.926-11.907-10.84-11.907-6.358 0-10.924 5.035-10.924 11.778 0 6.7 4.566 11.65 11.735 11.65zm4.054-14.082h-9.602c.257-2.56 2.049-4.524 4.823-4.524 2.688 0 4.651 1.792 4.78 4.524zm16.089 14.082c4.822 0 8.577-2.73 8.577-7.084 0-7.98-10.583-6.273-10.583-9.815 0-1.11.939-1.792 2.304-1.792 2.091 0 3.329 1.28 4.012 2.133l3.883-2.901c-1.067-1.75-3.414-3.97-7.639-3.97-4.566 0-8.108 2.476-8.108 6.615 0 7.938 10.54 6.615 10.54 10.029 0 1.28-1.066 2.006-2.73 2.006-2.518 0-4.012-1.153-5.121-2.433l-3.457 3.073c1.195 1.92 3.926 4.14 8.322 4.14zm17.624-.555V53.757l7.468 11.522h6.914l-8.45-12.204 7.852-10.114h-6.614l-7.17 9.388V34.426h-5.889v30.853h5.89z" fill="#000" fill-rule="nonzero"/></svg>
